<svg width="678" height="92" viewBox="0 0 678 92" fill="none" xmlns="http://www.w3.org/2000/svg">
<rect x="241.217" y="0.837891" width="35.3193" height="35.3193" fill="#CB82DA"/>
<path d="M299.217 21.0543C299.261 21.8355 299.446 22.4699 299.771 22.9574C300.389 23.8699 301.48 24.3262 303.042 24.3262C303.742 24.3262 304.38 24.2262 304.955 24.0262C306.067 23.6387 306.624 22.9449 306.624 21.9449C306.624 21.1949 306.389 20.6605 305.921 20.3418C305.446 20.0293 304.702 19.7574 303.689 19.5262L301.824 19.1043C300.605 18.8293 299.742 18.5262 299.236 18.1949C298.361 17.6199 297.924 16.7605 297.924 15.6168C297.924 14.3793 298.352 13.3637 299.208 12.5699C300.064 11.7762 301.277 11.3793 302.846 11.3793C304.289 11.3793 305.514 11.7293 306.521 12.4293C307.533 13.123 308.039 14.2355 308.039 15.7668H306.286C306.192 15.0293 305.992 14.4637 305.686 14.0699C305.117 13.3512 304.152 12.9918 302.789 12.9918C301.689 12.9918 300.899 13.223 300.417 13.6855C299.936 14.148 299.696 14.6855 299.696 15.298C299.696 15.973 299.977 16.4668 300.539 16.7793C300.908 16.9793 301.742 17.2293 303.042 17.5293L304.974 17.9699C305.905 18.1824 306.624 18.473 307.13 18.8418C308.005 19.4855 308.442 20.4199 308.442 21.6449C308.442 23.1699 307.886 24.2605 306.774 24.9168C305.667 25.573 304.38 25.9012 302.911 25.9012C301.199 25.9012 299.858 25.4637 298.889 24.5887C297.921 23.7199 297.446 22.5418 297.464 21.0543H299.217ZM314.564 24.4105C315.683 24.4105 316.449 23.9887 316.861 23.1449C317.28 22.2949 317.489 21.3512 317.489 20.3137C317.489 19.3762 317.339 18.6137 317.039 18.0262C316.564 17.1012 315.746 16.6387 314.583 16.6387C313.552 16.6387 312.802 17.0324 312.333 17.8199C311.864 18.6074 311.63 19.5574 311.63 20.6699C311.63 21.7387 311.864 22.6293 312.333 23.3418C312.802 24.0543 313.546 24.4105 314.564 24.4105ZM314.63 15.1668C315.924 15.1668 317.017 15.598 317.911 16.4605C318.805 17.323 319.252 18.5918 319.252 20.2668C319.252 21.8855 318.858 23.223 318.071 24.2793C317.283 25.3355 316.061 25.8637 314.405 25.8637C313.024 25.8637 311.927 25.398 311.114 24.4668C310.302 23.5293 309.896 22.273 309.896 20.698C309.896 19.0105 310.324 17.6668 311.18 16.6668C312.036 15.6668 313.186 15.1668 314.63 15.1668ZM325.139 15.1668C326.271 15.1668 327.189 15.4418 327.896 15.9918C328.608 16.5418 329.036 17.4887 329.18 18.8324H327.539C327.439 18.2137 327.211 17.7012 326.855 17.2949C326.499 16.8824 325.927 16.6762 325.139 16.6762C324.064 16.6762 323.296 17.2012 322.833 18.2512C322.533 18.9324 322.383 19.773 322.383 20.773C322.383 21.7793 322.596 22.6262 323.021 23.3137C323.446 24.0012 324.114 24.3449 325.027 24.3449C325.727 24.3449 326.28 24.1324 326.686 23.7074C327.099 23.2762 327.383 22.6887 327.539 21.9449H329.18C328.992 23.2762 328.524 24.2512 327.774 24.8699C327.024 25.4824 326.064 25.7887 324.896 25.7887C323.583 25.7887 322.536 25.3105 321.755 24.3543C320.974 23.3918 320.583 22.1918 320.583 20.7543C320.583 18.9918 321.011 17.6199 321.867 16.6387C322.724 15.6574 323.814 15.1668 325.139 15.1668ZM330.83 11.7262H332.452V19.723L336.783 15.4574H338.939L335.096 19.2168L339.155 25.498H336.999L333.867 20.4355L332.452 21.7293V25.498H330.83V11.7262ZM345.989 11.7262H348.661L352.617 23.3699L356.546 11.7262H359.189V25.498H357.417V17.3699C357.417 17.0887 357.424 16.623 357.436 15.973C357.449 15.323 357.455 14.6262 357.455 13.8824L353.527 25.498H351.68L347.724 13.8824V14.3043C347.724 14.6418 347.73 15.1574 347.742 15.8512C347.761 16.5387 347.771 17.0449 347.771 17.3699V25.498H345.989V11.7262ZM365.986 15.2324C366.699 15.2324 367.389 15.4012 368.058 15.7387C368.727 16.0699 369.236 16.5012 369.586 17.0324C369.924 17.5387 370.149 18.1293 370.261 18.8043C370.361 19.2668 370.411 20.0043 370.411 21.0168H363.052C363.083 22.0355 363.324 22.8543 363.774 23.473C364.224 24.0855 364.921 24.3918 365.864 24.3918C366.746 24.3918 367.449 24.1012 367.974 23.5199C368.274 23.1824 368.486 22.7918 368.611 22.348H370.271C370.227 22.7168 370.08 23.1293 369.83 23.5855C369.586 24.0355 369.311 24.4043 369.005 24.6918C368.492 25.1918 367.858 25.5293 367.102 25.7043C366.696 25.8043 366.236 25.8543 365.724 25.8543C364.474 25.8543 363.414 25.4012 362.546 24.4949C361.677 23.5824 361.242 22.3074 361.242 20.6699C361.242 19.0574 361.68 17.748 362.555 16.7418C363.43 15.7355 364.574 15.2324 365.986 15.2324ZM368.677 19.6762C368.608 18.9449 368.449 18.3605 368.199 17.923C367.736 17.1105 366.964 16.7043 365.883 16.7043C365.108 16.7043 364.458 16.9855 363.933 17.548C363.408 18.1043 363.13 18.8137 363.099 19.6762H368.677ZM372.83 12.6543H374.536V15.4574H376.139V16.8355H374.536V23.3887C374.536 23.7387 374.655 23.973 374.892 24.0918C375.024 24.1605 375.242 24.1949 375.549 24.1949C375.63 24.1949 375.717 24.1949 375.811 24.1949C375.905 24.1887 376.014 24.1793 376.139 24.1668V25.498C375.946 25.5543 375.742 25.5949 375.53 25.6199C375.324 25.6449 375.099 25.6574 374.855 25.6574C374.067 25.6574 373.533 25.4574 373.252 25.0574C372.971 24.6512 372.83 24.1262 372.83 23.4824V16.8355H371.471V15.4574H372.83V12.6543ZM377.836 11.6793H379.524V16.8168C379.924 16.3105 380.283 15.9543 380.602 15.748C381.146 15.3918 381.824 15.2137 382.636 15.2137C384.092 15.2137 385.08 15.723 385.599 16.7418C385.88 17.298 386.021 18.0699 386.021 19.0574V25.498H384.286V19.1699C384.286 18.4324 384.192 17.8918 384.005 17.548C383.699 16.998 383.124 16.723 382.28 16.723C381.58 16.723 380.946 16.9637 380.377 17.4449C379.808 17.9262 379.524 18.8355 379.524 20.173V25.498H377.836V11.6793ZM392.508 24.4105C393.627 24.4105 394.392 23.9887 394.805 23.1449C395.224 22.2949 395.433 21.3512 395.433 20.3137C395.433 19.3762 395.283 18.6137 394.983 18.0262C394.508 17.1012 393.689 16.6387 392.527 16.6387C391.496 16.6387 390.746 17.0324 390.277 17.8199C389.808 18.6074 389.574 19.5574 389.574 20.6699C389.574 21.7387 389.808 22.6293 390.277 23.3418C390.746 24.0543 391.489 24.4105 392.508 24.4105ZM392.574 15.1668C393.867 15.1668 394.961 15.598 395.855 16.4605C396.749 17.323 397.196 18.5918 397.196 20.2668C397.196 21.8855 396.802 23.223 396.014 24.2793C395.227 25.3355 394.005 25.8637 392.349 25.8637C390.967 25.8637 389.871 25.398 389.058 24.4668C388.246 23.5293 387.839 22.273 387.839 20.698C387.839 19.0105 388.267 17.6668 389.124 16.6668C389.98 15.6668 391.13 15.1668 392.574 15.1668ZM400.28 20.5949C400.28 21.6699 400.508 22.5699 400.964 23.2949C401.421 24.0199 402.152 24.3824 403.158 24.3824C403.939 24.3824 404.58 24.048 405.08 23.3793C405.586 22.7043 405.839 21.7387 405.839 20.4824C405.839 19.2137 405.58 18.2762 405.061 17.6699C404.542 17.0574 403.902 16.7512 403.139 16.7512C402.289 16.7512 401.599 17.0762 401.067 17.7262C400.542 18.3762 400.28 19.3324 400.28 20.5949ZM402.821 15.2793C403.589 15.2793 404.233 15.4418 404.752 15.7668C405.052 15.9543 405.392 16.2824 405.774 16.7512V11.6793H407.396V25.498H405.877V24.1012C405.483 24.7199 405.017 25.1668 404.48 25.4418C403.942 25.7168 403.327 25.8543 402.633 25.8543C401.514 25.8543 400.546 25.3855 399.727 24.448C398.908 23.5043 398.499 22.2512 398.499 20.6887C398.499 19.2262 398.871 17.9605 399.614 16.8918C400.364 15.8168 401.433 15.2793 402.821 15.2793ZM410.902 22.348C410.952 22.9105 411.092 23.3418 411.324 23.6418C411.749 24.1855 412.486 24.4574 413.536 24.4574C414.161 24.4574 414.711 24.323 415.186 24.0543C415.661 23.7793 415.899 23.3574 415.899 22.7887C415.899 22.3574 415.708 22.0293 415.327 21.8043C415.083 21.6668 414.602 21.5074 413.883 21.3262L412.542 20.9887C411.686 20.7762 411.055 20.5387 410.649 20.2762C409.924 19.8199 409.561 19.1887 409.561 18.3824C409.561 17.4324 409.902 16.6637 410.583 16.0762C411.271 15.4887 412.192 15.1949 413.349 15.1949C414.861 15.1949 415.952 15.6387 416.621 16.5262C417.039 17.0887 417.242 17.6949 417.23 18.3449H415.636C415.605 17.9637 415.471 17.6168 415.233 17.3043C414.846 16.8605 414.174 16.6387 413.217 16.6387C412.58 16.6387 412.096 16.7605 411.764 17.0043C411.439 17.248 411.277 17.5699 411.277 17.9699C411.277 18.4074 411.492 18.7574 411.924 19.0199C412.174 19.1762 412.542 19.3137 413.03 19.4324L414.146 19.7043C415.358 19.998 416.171 20.2824 416.583 20.5574C417.239 20.9887 417.567 21.6668 417.567 22.5918C417.567 23.4855 417.227 24.2574 416.546 24.9074C415.871 25.5574 414.839 25.8824 413.452 25.8824C411.958 25.8824 410.899 25.5449 410.274 24.8699C409.655 24.1887 409.324 23.348 409.28 22.348H410.902Z" fill="#7F7B74"/>
<rect x="0.274414" y="56.1582" width="35.3193" height="35.3193" fill="#F0439F"/>
<path d="M57.1031 67.0465H58.9875V72.7371H66.15V67.0465H68.0344V80.8184H66.15V74.3777H58.9875V80.8184H57.1031V67.0465ZM74.8875 70.5527C75.6 70.5527 76.2906 70.7215 76.9594 71.059C77.6281 71.3902 78.1375 71.8215 78.4875 72.3527C78.825 72.859 79.05 73.4496 79.1625 74.1246C79.2625 74.5871 79.3125 75.3246 79.3125 76.3371H71.9531C71.9844 77.3559 72.225 78.1746 72.675 78.7934C73.125 79.4059 73.8219 79.7121 74.7656 79.7121C75.6469 79.7121 76.35 79.4215 76.875 78.8402C77.175 78.5027 77.3875 78.1121 77.5125 77.6684H79.1719C79.1281 78.0371 78.9813 78.4496 78.7313 78.9059C78.4875 79.3559 78.2125 79.7246 77.9063 80.0121C77.3938 80.5121 76.7594 80.8496 76.0031 81.0246C75.5969 81.1246 75.1375 81.1746 74.625 81.1746C73.375 81.1746 72.3156 80.7215 71.4469 79.8152C70.5781 78.9027 70.1438 77.6277 70.1438 75.9902C70.1438 74.3777 70.5813 73.0684 71.4563 72.0621C72.3313 71.0559 73.475 70.5527 74.8875 70.5527ZM77.5781 74.9965C77.5094 74.2652 77.35 73.6809 77.1 73.2434C76.6375 72.4309 75.8656 72.0246 74.7844 72.0246C74.0094 72.0246 73.3594 72.3059 72.8344 72.8684C72.3094 73.4246 72.0313 74.134 72 74.9965H77.5781ZM85.575 70.5527C86.2875 70.5527 86.9781 70.7215 87.6469 71.059C88.3156 71.3902 88.825 71.8215 89.175 72.3527C89.5125 72.859 89.7375 73.4496 89.85 74.1246C89.95 74.5871 90 75.3246 90 76.3371H82.6406C82.6719 77.3559 82.9125 78.1746 83.3625 78.7934C83.8125 79.4059 84.5094 79.7121 85.4531 79.7121C86.3344 79.7121 87.0375 79.4215 87.5625 78.8402C87.8625 78.5027 88.075 78.1121 88.2 77.6684H89.8594C89.8156 78.0371 89.6688 78.4496 89.4188 78.9059C89.175 79.3559 88.9 79.7246 88.5938 80.0121C88.0813 80.5121 87.4469 80.8496 86.6906 81.0246C86.2844 81.1246 85.825 81.1746 85.3125 81.1746C84.0625 81.1746 83.0031 80.7215 82.1344 79.8152C81.2656 78.9027 80.8313 77.6277 80.8313 75.9902C80.8313 74.3777 81.2688 73.0684 82.1438 72.0621C83.0188 71.0559 84.1625 70.5527 85.575 70.5527ZM88.2656 74.9965C88.1969 74.2652 88.0375 73.6809 87.7875 73.2434C87.325 72.4309 86.5531 72.0246 85.4719 72.0246C84.6969 72.0246 84.0469 72.3059 83.5219 72.8684C82.9969 73.4246 82.7188 74.134 82.6875 74.9965H88.2656ZM92.1281 67.0465H93.8156V80.8184H92.1281V67.0465ZM102.038 67.9746H103.744V70.7777H105.347V72.1559H103.744V78.709C103.744 79.059 103.863 79.2934 104.1 79.4121C104.231 79.4809 104.45 79.5152 104.756 79.5152C104.838 79.5152 104.925 79.5152 105.019 79.5152C105.113 79.509 105.222 79.4996 105.347 79.4871V80.8184C105.153 80.8746 104.95 80.9152 104.738 80.9402C104.531 80.9652 104.306 80.9777 104.063 80.9777C103.275 80.9777 102.741 80.7777 102.459 80.3777C102.178 79.9715 102.038 79.4465 102.038 78.8027V72.1559H100.678V70.7777H102.038V67.9746ZM113.316 70.7777H115.181C114.944 71.4215 114.416 72.8902 113.597 75.184C112.984 76.909 112.472 78.3152 112.059 79.4027C111.084 81.9652 110.397 83.5277 109.997 84.0902C109.597 84.6527 108.909 84.934 107.934 84.934C107.697 84.934 107.513 84.9246 107.381 84.9059C107.256 84.8871 107.1 84.8527 106.913 84.8027V83.2652C107.206 83.3465 107.419 83.3965 107.55 83.4152C107.681 83.434 107.797 83.4434 107.897 83.4434C108.209 83.4434 108.438 83.3902 108.581 83.284C108.731 83.184 108.856 83.059 108.956 82.909C108.988 82.859 109.1 82.6027 109.294 82.1402C109.488 81.6777 109.628 81.334 109.716 81.109L106.003 70.7777H107.916L110.606 78.9527L113.316 70.7777ZM120.881 79.684C121.669 79.684 122.322 79.3559 122.841 78.6996C123.366 78.0371 123.628 77.0496 123.628 75.7371C123.628 74.9371 123.513 74.2496 123.281 73.6746C122.844 72.5684 122.044 72.0152 120.881 72.0152C119.713 72.0152 118.913 72.5996 118.481 73.7684C118.25 74.3934 118.134 75.1871 118.134 76.1496C118.134 76.9246 118.25 77.584 118.481 78.1277C118.919 79.1652 119.719 79.684 120.881 79.684ZM116.513 70.8246H118.153V72.1559C118.491 71.6996 118.859 71.3465 119.259 71.0965C119.828 70.7215 120.497 70.534 121.266 70.534C122.403 70.534 123.369 70.9715 124.163 71.8465C124.956 72.7152 125.353 73.959 125.353 75.5777C125.353 77.7652 124.781 79.3277 123.638 80.2652C122.913 80.859 122.069 81.1559 121.106 81.1559C120.35 81.1559 119.716 80.9902 119.203 80.659C118.903 80.4715 118.569 80.1496 118.2 79.6934V84.8215H116.513V70.8246ZM131.513 70.5527C132.225 70.5527 132.916 70.7215 133.584 71.059C134.253 71.3902 134.763 71.8215 135.113 72.3527C135.45 72.859 135.675 73.4496 135.788 74.1246C135.888 74.5871 135.938 75.3246 135.938 76.3371H128.578C128.609 77.3559 128.85 78.1746 129.3 78.7934C129.75 79.4059 130.447 79.7121 131.391 79.7121C132.272 79.7121 132.975 79.4215 133.5 78.8402C133.8 78.5027 134.013 78.1121 134.138 77.6684H135.797C135.753 78.0371 135.606 78.4496 135.356 78.9059C135.113 79.3559 134.838 79.7246 134.531 80.0121C134.019 80.5121 133.384 80.8496 132.628 81.0246C132.222 81.1246 131.763 81.1746 131.25 81.1746C130 81.1746 128.941 80.7215 128.072 79.8152C127.203 78.9027 126.769 77.6277 126.769 75.9902C126.769 74.3777 127.206 73.0684 128.081 72.0621C128.956 71.0559 130.1 70.5527 131.513 70.5527ZM134.203 74.9965C134.134 74.2652 133.975 73.6809 133.725 73.2434C133.263 72.4309 132.491 72.0246 131.409 72.0246C130.634 72.0246 129.984 72.3059 129.459 72.8684C128.934 73.4246 128.656 74.134 128.625 74.9965H134.203ZM139.022 77.6684C139.072 78.2309 139.213 78.6621 139.444 78.9621C139.869 79.5059 140.606 79.7777 141.656 79.7777C142.281 79.7777 142.831 79.6434 143.306 79.3746C143.781 79.0996 144.019 78.6777 144.019 78.109C144.019 77.6777 143.828 77.3496 143.447 77.1246C143.203 76.9871 142.722 76.8277 142.003 76.6465L140.663 76.309C139.806 76.0965 139.175 75.859 138.769 75.5965C138.044 75.1402 137.681 74.509 137.681 73.7027C137.681 72.7527 138.022 71.984 138.703 71.3965C139.391 70.809 140.313 70.5152 141.469 70.5152C142.981 70.5152 144.072 70.959 144.741 71.8465C145.159 72.409 145.363 73.0152 145.35 73.6652H143.756C143.725 73.284 143.591 72.9371 143.353 72.6246C142.966 72.1809 142.294 71.959 141.338 71.959C140.7 71.959 140.216 72.0809 139.884 72.3246C139.559 72.5684 139.397 72.8902 139.397 73.2902C139.397 73.7277 139.613 74.0777 140.044 74.3402C140.294 74.4965 140.663 74.634 141.15 74.7527L142.266 75.0246C143.478 75.3184 144.291 75.6027 144.703 75.8777C145.359 76.309 145.688 76.9871 145.688 77.9121C145.688 78.8059 145.347 79.5777 144.666 80.2277C143.991 80.8777 142.959 81.2027 141.572 81.2027C140.078 81.2027 139.019 80.8652 138.394 80.1902C137.775 79.509 137.444 78.6684 137.4 77.6684H139.022Z" fill="#7F7B74"/>
<rect x="466.159" y="0.834961" width="35.3193" height="35.3193" fill="#90E2CD"/>
<path d="M524.16 21.0504C524.204 21.8316 524.388 22.466 524.713 22.9535C525.332 23.866 526.422 24.3223 527.985 24.3223C528.685 24.3223 529.322 24.2223 529.897 24.0223C531.01 23.6348 531.566 22.941 531.566 21.941C531.566 21.191 531.332 20.6566 530.863 20.3379C530.388 20.0254 529.644 19.7535 528.632 19.5223L526.766 19.1004C525.547 18.8254 524.685 18.5223 524.179 18.191C523.304 17.616 522.866 16.7566 522.866 15.6129C522.866 14.3754 523.294 13.3598 524.15 12.566C525.007 11.7723 526.219 11.3754 527.788 11.3754C529.232 11.3754 530.457 11.7254 531.463 12.4254C532.475 13.1191 532.982 14.2316 532.982 15.7629H531.229C531.135 15.0254 530.935 14.4598 530.629 14.066C530.06 13.3473 529.094 12.9879 527.732 12.9879C526.632 12.9879 525.841 13.2191 525.36 13.6816C524.879 14.1441 524.638 14.6816 524.638 15.2941C524.638 15.9691 524.919 16.4629 525.482 16.7754C525.85 16.9754 526.685 17.2254 527.985 17.5254L529.916 17.966C530.847 18.1785 531.566 18.4691 532.072 18.8379C532.947 19.4816 533.385 20.416 533.385 21.641C533.385 23.166 532.829 24.2566 531.716 24.9129C530.61 25.5691 529.322 25.8973 527.854 25.8973C526.141 25.8973 524.8 25.4598 523.832 24.5848C522.863 23.716 522.388 22.5379 522.407 21.0504H524.16ZM539.507 24.4066C540.625 24.4066 541.391 23.9848 541.804 23.141C542.222 22.291 542.432 21.3473 542.432 20.3098C542.432 19.3723 542.282 18.6098 541.982 18.0223C541.507 17.0973 540.688 16.6348 539.525 16.6348C538.494 16.6348 537.744 17.0285 537.275 17.816C536.807 18.6035 536.572 19.5535 536.572 20.666C536.572 21.7348 536.807 22.6254 537.275 23.3379C537.744 24.0504 538.488 24.4066 539.507 24.4066ZM539.572 15.1629C540.866 15.1629 541.96 15.5941 542.854 16.4566C543.747 17.3191 544.194 18.5879 544.194 20.2629C544.194 21.8816 543.8 23.2191 543.013 24.2754C542.225 25.3316 541.004 25.8598 539.347 25.8598C537.966 25.8598 536.869 25.3941 536.057 24.4629C535.244 23.5254 534.838 22.2691 534.838 20.6941C534.838 19.0066 535.266 17.6629 536.122 16.6629C536.979 15.6629 538.129 15.1629 539.572 15.1629ZM550.082 15.1629C551.213 15.1629 552.132 15.4379 552.838 15.9879C553.55 16.5379 553.979 17.4848 554.122 18.8285H552.482C552.382 18.2098 552.154 17.6973 551.797 17.291C551.441 16.8785 550.869 16.6723 550.082 16.6723C549.007 16.6723 548.238 17.1973 547.775 18.2473C547.475 18.9285 547.325 19.7691 547.325 20.7691C547.325 21.7754 547.538 22.6223 547.963 23.3098C548.388 23.9973 549.057 24.341 549.969 24.341C550.669 24.341 551.222 24.1285 551.629 23.7035C552.041 23.2723 552.325 22.6848 552.482 21.941H554.122C553.935 23.2723 553.466 24.2473 552.716 24.866C551.966 25.4785 551.007 25.7848 549.838 25.7848C548.525 25.7848 547.479 25.3066 546.697 24.3504C545.916 23.3879 545.525 22.1879 545.525 20.7504C545.525 18.9879 545.954 17.616 546.81 16.6348C547.666 15.6535 548.757 15.1629 550.082 15.1629ZM555.772 11.7223H557.394V19.7191L561.725 15.4535H563.882L560.038 19.2129L564.097 25.4941H561.941L558.81 20.4316L557.394 21.7254V25.4941H555.772V11.7223ZM576.782 11.3473C578.525 11.3473 579.879 11.8066 580.841 12.7254C581.804 13.6441 582.338 14.6879 582.444 15.8566H580.625C580.419 14.9691 580.007 14.266 579.388 13.7473C578.775 13.2285 577.913 12.9691 576.8 12.9691C575.444 12.9691 574.347 13.4473 573.51 14.4035C572.679 15.3535 572.263 16.8129 572.263 18.7816C572.263 20.3941 572.638 21.7035 573.388 22.7098C574.144 23.7098 575.269 24.2098 576.763 24.2098C578.138 24.2098 579.185 23.6816 579.904 22.6254C580.285 22.0691 580.569 21.3379 580.757 20.4316H582.575C582.413 21.8816 581.875 23.0973 580.963 24.0785C579.869 25.2598 578.394 25.8504 576.538 25.8504C574.938 25.8504 573.594 25.366 572.507 24.3973C571.075 23.116 570.36 21.1379 570.36 18.4629C570.36 16.4316 570.897 14.766 571.972 13.466C573.135 12.0535 574.738 11.3473 576.782 11.3473ZM588.613 24.4066C589.732 24.4066 590.497 23.9848 590.91 23.141C591.329 22.291 591.538 21.3473 591.538 20.3098C591.538 19.3723 591.388 18.6098 591.088 18.0223C590.613 17.0973 589.794 16.6348 588.632 16.6348C587.6 16.6348 586.85 17.0285 586.382 17.816C585.913 18.6035 585.679 19.5535 585.679 20.666C585.679 21.7348 585.913 22.6254 586.382 23.3379C586.85 24.0504 587.594 24.4066 588.613 24.4066ZM588.679 15.1629C589.972 15.1629 591.066 15.5941 591.96 16.4566C592.854 17.3191 593.3 18.5879 593.3 20.2629C593.3 21.8816 592.907 23.2191 592.119 24.2754C591.332 25.3316 590.11 25.8598 588.454 25.8598C587.072 25.8598 585.975 25.3941 585.163 24.4629C584.35 23.5254 583.944 22.2691 583.944 20.6941C583.944 19.0066 584.372 17.6629 585.229 16.6629C586.085 15.6629 587.235 15.1629 588.679 15.1629ZM595.316 15.4535H596.919V16.8785C597.394 16.291 597.897 15.8691 598.429 15.6129C598.96 15.3566 599.55 15.2285 600.2 15.2285C601.625 15.2285 602.588 15.7254 603.088 16.7191C603.363 17.2629 603.5 18.041 603.5 19.0535V25.4941H601.785V19.166C601.785 18.5535 601.694 18.0598 601.513 17.6848C601.213 17.0598 600.669 16.7473 599.882 16.7473C599.482 16.7473 599.154 16.7879 598.897 16.8691C598.435 17.0066 598.029 17.2816 597.679 17.6941C597.397 18.0254 597.213 18.3691 597.125 18.7254C597.044 19.0754 597.004 19.5785 597.004 20.2348V25.4941H595.316V15.4535ZM607.007 22.3441C607.057 22.9066 607.197 23.3379 607.429 23.6379C607.854 24.1816 608.591 24.4535 609.641 24.4535C610.266 24.4535 610.816 24.3191 611.291 24.0504C611.766 23.7754 612.004 23.3535 612.004 22.7848C612.004 22.3535 611.813 22.0254 611.432 21.8004C611.188 21.6629 610.707 21.5035 609.988 21.3223L608.647 20.9848C607.791 20.7723 607.16 20.5348 606.754 20.2723C606.029 19.816 605.666 19.1848 605.666 18.3785C605.666 17.4285 606.007 16.6598 606.688 16.0723C607.375 15.4848 608.297 15.191 609.454 15.191C610.966 15.191 612.057 15.6348 612.725 16.5223C613.144 17.0848 613.347 17.691 613.335 18.341H611.741C611.71 17.9598 611.575 17.6129 611.338 17.3004C610.95 16.8566 610.279 16.6348 609.322 16.6348C608.685 16.6348 608.2 16.7566 607.869 17.0004C607.544 17.2441 607.382 17.566 607.382 17.966C607.382 18.4035 607.597 18.7535 608.029 19.016C608.279 19.1723 608.647 19.3098 609.135 19.4285L610.25 19.7004C611.463 19.9941 612.275 20.2785 612.688 20.5535C613.344 20.9848 613.672 21.6629 613.672 22.5879C613.672 23.4816 613.332 24.2535 612.65 24.9035C611.975 25.5535 610.944 25.8785 609.557 25.8785C608.063 25.8785 607.004 25.541 606.379 24.866C605.76 24.1848 605.429 23.3441 605.385 22.3441H607.007ZM615.941 12.6504H617.647V15.4535H619.25V16.8316H617.647V23.3848C617.647 23.7348 617.766 23.9691 618.004 24.0879C618.135 24.1566 618.354 24.191 618.66 24.191C618.741 24.191 618.829 24.191 618.922 24.191C619.016 24.1848 619.125 24.1754 619.25 24.1629V25.4941C619.057 25.5504 618.854 25.591 618.641 25.616C618.435 25.641 618.21 25.6535 617.966 25.6535C617.179 25.6535 616.644 25.4535 616.363 25.0535C616.082 24.6473 615.941 24.1223 615.941 23.4785V16.8316H614.582V15.4535H615.941V12.6504ZM620.994 15.4535H622.597V17.1879C622.729 16.8504 623.05 16.441 623.563 15.9598C624.075 15.4723 624.666 15.2285 625.335 15.2285C625.366 15.2285 625.419 15.2316 625.494 15.2379C625.569 15.2441 625.697 15.2566 625.879 15.2754V17.0566C625.779 17.0379 625.685 17.0254 625.597 17.0191C625.516 17.0129 625.425 17.0098 625.325 17.0098C624.475 17.0098 623.822 17.2848 623.366 17.8348C622.91 18.3785 622.682 19.0066 622.682 19.7191V25.4941H620.994V15.4535ZM629.029 15.4535V22.1191C629.029 22.6316 629.11 23.0504 629.272 23.3754C629.572 23.9754 630.132 24.2754 630.95 24.2754C632.125 24.2754 632.925 23.7504 633.35 22.7004C633.582 22.1379 633.697 21.366 633.697 20.3848V15.4535H635.385V25.4941H633.791L633.81 24.0129C633.591 24.3941 633.319 24.716 632.994 24.9785C632.35 25.5035 631.569 25.766 630.65 25.766C629.219 25.766 628.244 25.2879 627.725 24.3316C627.444 23.8191 627.304 23.1348 627.304 22.2785V15.4535H629.029ZM641.9 15.1629C643.032 15.1629 643.95 15.4379 644.657 15.9879C645.369 16.5379 645.797 17.4848 645.941 18.8285H644.3C644.2 18.2098 643.972 17.6973 643.616 17.291C643.26 16.8785 642.688 16.6723 641.9 16.6723C640.825 16.6723 640.057 17.1973 639.594 18.2473C639.294 18.9285 639.144 19.7691 639.144 20.7691C639.144 21.7754 639.357 22.6223 639.782 23.3098C640.207 23.9973 640.875 24.341 641.788 24.341C642.488 24.341 643.041 24.1285 643.447 23.7035C643.86 23.2723 644.144 22.6848 644.3 21.941H645.941C645.754 23.2723 645.285 24.2473 644.535 24.866C643.785 25.4785 642.825 25.7848 641.657 25.7848C640.344 25.7848 639.297 25.3066 638.516 24.3504C637.735 23.3879 637.344 22.1879 637.344 20.7504C637.344 18.9879 637.772 17.616 638.629 16.6348C639.485 15.6535 640.575 15.1629 641.9 15.1629ZM647.966 12.6504H649.672V15.4535H651.275V16.8316H649.672V23.3848C649.672 23.7348 649.791 23.9691 650.029 24.0879C650.16 24.1566 650.379 24.191 650.685 24.191C650.766 24.191 650.854 24.191 650.947 24.191C651.041 24.1848 651.15 24.1754 651.275 24.1629V25.4941C651.082 25.5504 650.879 25.591 650.666 25.616C650.46 25.641 650.235 25.6535 649.991 25.6535C649.204 25.6535 648.669 25.4535 648.388 25.0535C648.107 24.6473 647.966 24.1223 647.966 23.4785V16.8316H646.607V15.4535H647.966V12.6504ZM652.972 15.5004H654.688V25.4941H652.972V15.5004ZM652.972 11.7223H654.688V13.6348H652.972V11.7223ZM661.232 24.4066C662.35 24.4066 663.116 23.9848 663.529 23.141C663.947 22.291 664.157 21.3473 664.157 20.3098C664.157 19.3723 664.007 18.6098 663.707 18.0223C663.232 17.0973 662.413 16.6348 661.25 16.6348C660.219 16.6348 659.469 17.0285 659 17.816C658.532 18.6035 658.297 19.5535 658.297 20.666C658.297 21.7348 658.532 22.6254 659 23.3379C659.469 24.0504 660.213 24.4066 661.232 24.4066ZM661.297 15.1629C662.591 15.1629 663.685 15.5941 664.579 16.4566C665.472 17.3191 665.919 18.5879 665.919 20.2629C665.919 21.8816 665.525 23.2191 664.738 24.2754C663.95 25.3316 662.729 25.8598 661.072 25.8598C659.691 25.8598 658.594 25.3941 657.782 24.4629C656.969 23.5254 656.563 22.2691 656.563 20.6941C656.563 19.0066 656.991 17.6629 657.847 16.6629C658.704 15.6629 659.854 15.1629 661.297 15.1629ZM667.935 15.4535H669.538V16.8785C670.013 16.291 670.516 15.8691 671.047 15.6129C671.579 15.3566 672.169 15.2285 672.819 15.2285C674.244 15.2285 675.207 15.7254 675.707 16.7191C675.982 17.2629 676.119 18.041 676.119 19.0535V25.4941H674.404V19.166C674.404 18.5535 674.313 18.0598 674.132 17.6848C673.832 17.0598 673.288 16.7473 672.5 16.7473C672.1 16.7473 671.772 16.7879 671.516 16.8691C671.054 17.0066 670.647 17.2816 670.297 17.6941C670.016 18.0254 669.832 18.3691 669.744 18.7254C669.663 19.0754 669.622 19.5785 669.622 20.2348V25.4941H667.935V15.4535Z" fill="#7F7B74"/>
<rect x="0.274414" y="0.837891" width="35.3193" height="35.3193" fill="#21ACCA"/>
<path d="M57.2344 11.7262H66.7875V13.4137H59.1V17.5949H65.8594V19.2355H59.1V25.498H57.2344V11.7262ZM69.8625 22.8262C69.8625 23.3137 70.0406 23.698 70.3969 23.9793C70.7531 24.2605 71.175 24.4012 71.6625 24.4012C72.2563 24.4012 72.8313 24.2637 73.3875 23.9887C74.325 23.5324 74.7938 22.7855 74.7938 21.748V20.3887C74.5875 20.5199 74.3219 20.6293 73.9969 20.7168C73.6719 20.8043 73.3531 20.8668 73.0406 20.9043L72.0188 21.0355C71.4063 21.1168 70.9469 21.2449 70.6406 21.4199C70.1219 21.7137 69.8625 22.1824 69.8625 22.8262ZM73.95 19.4137C74.3375 19.3637 74.5969 19.2012 74.7281 18.9262C74.8031 18.7762 74.8406 18.5605 74.8406 18.2793C74.8406 17.7043 74.6344 17.2887 74.2219 17.0324C73.8156 16.7699 73.2313 16.6387 72.4688 16.6387C71.5875 16.6387 70.9625 16.8762 70.5938 17.3512C70.3875 17.6137 70.2531 18.0043 70.1906 18.523H68.6156C68.6469 17.2855 69.0469 16.4262 69.8156 15.9449C70.5906 15.4574 71.4875 15.2137 72.5063 15.2137C73.6875 15.2137 74.6469 15.4387 75.3844 15.8887C76.1156 16.3387 76.4813 17.0387 76.4813 17.9887V23.773C76.4813 23.948 76.5156 24.0887 76.5844 24.1949C76.6594 24.3012 76.8125 24.3543 77.0438 24.3543C77.1188 24.3543 77.2031 24.3512 77.2969 24.3449C77.3906 24.3324 77.4906 24.3168 77.5969 24.298V25.5449C77.3344 25.6199 77.1344 25.6668 76.9969 25.6855C76.8594 25.7043 76.6719 25.7137 76.4344 25.7137C75.8531 25.7137 75.4313 25.5074 75.1688 25.0949C75.0313 24.8762 74.9344 24.5668 74.8781 24.1668C74.5344 24.6168 74.0406 25.0074 73.3969 25.3387C72.7531 25.6699 72.0438 25.8355 71.2688 25.8355C70.3375 25.8355 69.575 25.5543 68.9813 24.9918C68.3938 24.423 68.1 23.7137 68.1 22.8637C68.1 21.9324 68.3906 21.2105 68.9719 20.698C69.5531 20.1855 70.3156 19.8699 71.2594 19.7512L73.95 19.4137ZM79.125 11.6793H80.7656V16.6762C81.1344 16.1949 81.575 15.8293 82.0875 15.5793C82.6 15.323 83.1562 15.1949 83.7562 15.1949C85.0062 15.1949 86.0187 15.6262 86.7937 16.4887C87.575 17.3449 87.9656 18.6105 87.9656 20.2855C87.9656 21.873 87.5812 23.1918 86.8125 24.2418C86.0437 25.2918 84.9781 25.8168 83.6156 25.8168C82.8531 25.8168 82.2094 25.6324 81.6844 25.2637C81.3719 25.0449 81.0375 24.6949 80.6812 24.2137V25.498H79.125V11.6793ZM83.5125 24.3262C84.425 24.3262 85.1062 23.9637 85.5562 23.2387C86.0125 22.5137 86.2406 21.5574 86.2406 20.3699C86.2406 19.3137 86.0125 18.4387 85.5562 17.7449C85.1062 17.0512 84.4406 16.7043 83.5594 16.7043C82.7906 16.7043 82.1156 16.9887 81.5344 17.5574C80.9594 18.1262 80.6719 19.0637 80.6719 20.3699C80.6719 21.3137 80.7906 22.0793 81.0281 22.6668C81.4719 23.773 82.3 24.3262 83.5125 24.3262ZM89.9906 15.4574H91.5937V17.1918C91.725 16.8543 92.0469 16.4449 92.5594 15.9637C93.0719 15.4762 93.6625 15.2324 94.3312 15.2324C94.3625 15.2324 94.4156 15.2355 94.4906 15.2418C94.5656 15.248 94.6937 15.2605 94.875 15.2793V17.0605C94.775 17.0418 94.6812 17.0293 94.5937 17.023C94.5125 17.0168 94.4219 17.0137 94.3219 17.0137C93.4719 17.0137 92.8187 17.2887 92.3625 17.8387C91.9062 18.3824 91.6781 19.0105 91.6781 19.723V25.498H89.9906V15.4574ZM96.3375 15.5043H98.0531V25.498H96.3375V15.5043ZM96.3375 11.7262H98.0531V13.6387H96.3375V11.7262ZM104.484 15.1668C105.616 15.1668 106.534 15.4418 107.241 15.9918C107.953 16.5418 108.381 17.4887 108.525 18.8324H106.884C106.784 18.2137 106.556 17.7012 106.2 17.2949C105.844 16.8824 105.272 16.6762 104.484 16.6762C103.409 16.6762 102.641 17.2012 102.178 18.2512C101.878 18.9324 101.728 19.773 101.728 20.773C101.728 21.7793 101.941 22.6262 102.366 23.3137C102.791 24.0012 103.459 24.3449 104.372 24.3449C105.072 24.3449 105.625 24.1324 106.031 23.7074C106.444 23.2762 106.728 22.6887 106.884 21.9449H108.525C108.338 23.2762 107.869 24.2512 107.119 24.8699C106.369 25.4824 105.409 25.7887 104.241 25.7887C102.928 25.7887 101.881 25.3105 101.1 24.3543C100.319 23.3918 99.9281 22.1918 99.9281 20.7543C99.9281 18.9918 100.356 17.6199 101.213 16.6387C102.069 15.6574 103.159 15.1668 104.484 15.1668ZM118.688 11.7262H120.113L115.744 25.498H114.319L118.688 11.7262ZM127.687 21.0543C127.731 21.8355 127.916 22.4699 128.241 22.9574C128.859 23.8699 129.95 24.3262 131.512 24.3262C132.212 24.3262 132.85 24.2262 133.425 24.0262C134.537 23.6387 135.094 22.9449 135.094 21.9449C135.094 21.1949 134.859 20.6605 134.391 20.3418C133.916 20.0293 133.172 19.7574 132.159 19.5262L130.294 19.1043C129.075 18.8293 128.212 18.5262 127.706 18.1949C126.831 17.6199 126.394 16.7605 126.394 15.6168C126.394 14.3793 126.822 13.3637 127.678 12.5699C128.534 11.7762 129.747 11.3793 131.316 11.3793C132.759 11.3793 133.984 11.7293 134.991 12.4293C136.003 13.123 136.509 14.2355 136.509 15.7668H134.756C134.662 15.0293 134.462 14.4637 134.156 14.0699C133.587 13.3512 132.622 12.9918 131.259 12.9918C130.159 12.9918 129.369 13.223 128.887 13.6855C128.406 14.148 128.166 14.6855 128.166 15.298C128.166 15.973 128.447 16.4668 129.009 16.7793C129.378 16.9793 130.212 17.2293 131.512 17.5293L133.444 17.9699C134.375 18.1824 135.094 18.473 135.6 18.8418C136.475 19.4855 136.912 20.4199 136.912 21.6449C136.912 23.1699 136.356 24.2605 135.244 24.9168C134.137 25.573 132.85 25.9012 131.381 25.9012C129.669 25.9012 128.328 25.4637 127.359 24.5887C126.391 23.7199 125.916 22.5418 125.934 21.0543H127.687ZM139.388 12.6543H141.094V15.4574H142.697V16.8355H141.094V23.3887C141.094 23.7387 141.213 23.973 141.45 24.0918C141.581 24.1605 141.8 24.1949 142.106 24.1949C142.188 24.1949 142.275 24.1949 142.369 24.1949C142.463 24.1887 142.572 24.1793 142.697 24.1668V25.498C142.503 25.5543 142.3 25.5949 142.088 25.6199C141.881 25.6449 141.656 25.6574 141.413 25.6574C140.625 25.6574 140.091 25.4574 139.809 25.0574C139.528 24.6512 139.388 24.1262 139.388 23.4824V16.8355H138.028V15.4574H139.388V12.6543ZM144.394 15.5043H146.109V25.498H144.394V15.5043ZM144.394 11.7262H146.109V13.6387H144.394V11.7262ZM149.006 12.6543H150.713V15.4574H152.316V16.8355H150.713V23.3887C150.713 23.7387 150.831 23.973 151.069 24.0918C151.2 24.1605 151.419 24.1949 151.725 24.1949C151.806 24.1949 151.894 24.1949 151.988 24.1949C152.081 24.1887 152.191 24.1793 152.316 24.1668V25.498C152.122 25.5543 151.919 25.5949 151.706 25.6199C151.5 25.6449 151.275 25.6574 151.031 25.6574C150.244 25.6574 149.709 25.4574 149.428 25.0574C149.147 24.6512 149.006 24.1262 149.006 23.4824V16.8355H147.647V15.4574H149.006V12.6543ZM157.884 15.1668C159.016 15.1668 159.934 15.4418 160.641 15.9918C161.353 16.5418 161.781 17.4887 161.925 18.8324H160.284C160.184 18.2137 159.956 17.7012 159.6 17.2949C159.244 16.8824 158.672 16.6762 157.884 16.6762C156.809 16.6762 156.041 17.2012 155.578 18.2512C155.278 18.9324 155.128 19.773 155.128 20.773C155.128 21.7793 155.341 22.6262 155.766 23.3137C156.191 24.0012 156.859 24.3449 157.772 24.3449C158.472 24.3449 159.025 24.1324 159.431 23.7074C159.844 23.2762 160.128 22.6887 160.284 21.9449H161.925C161.738 23.2762 161.269 24.2512 160.519 24.8699C159.769 25.4824 158.809 25.7887 157.641 25.7887C156.328 25.7887 155.281 25.3105 154.5 24.3543C153.719 23.3918 153.328 22.1918 153.328 20.7543C153.328 18.9918 153.756 17.6199 154.613 16.6387C155.469 15.6574 156.559 15.1668 157.884 15.1668ZM163.613 11.6793H165.3V16.8168C165.7 16.3105 166.059 15.9543 166.378 15.748C166.922 15.3918 167.6 15.2137 168.413 15.2137C169.869 15.2137 170.856 15.723 171.375 16.7418C171.656 17.298 171.797 18.0699 171.797 19.0574V25.498H170.063V19.1699C170.063 18.4324 169.969 17.8918 169.781 17.548C169.475 16.998 168.9 16.723 168.056 16.723C167.356 16.723 166.722 16.9637 166.153 17.4449C165.584 17.9262 165.3 18.8355 165.3 20.173V25.498H163.613V11.6793ZM178.481 15.2324C179.194 15.2324 179.884 15.4012 180.553 15.7387C181.222 16.0699 181.731 16.5012 182.081 17.0324C182.419 17.5387 182.644 18.1293 182.756 18.8043C182.856 19.2668 182.906 20.0043 182.906 21.0168H175.547C175.578 22.0355 175.819 22.8543 176.269 23.473C176.719 24.0855 177.416 24.3918 178.359 24.3918C179.241 24.3918 179.944 24.1012 180.469 23.5199C180.769 23.1824 180.981 22.7918 181.106 22.348H182.766C182.722 22.7168 182.575 23.1293 182.325 23.5855C182.081 24.0355 181.806 24.4043 181.5 24.6918C180.988 25.1918 180.353 25.5293 179.597 25.7043C179.191 25.8043 178.731 25.8543 178.219 25.8543C176.969 25.8543 175.909 25.4012 175.041 24.4949C174.172 23.5824 173.738 22.3074 173.738 20.6699C173.738 19.0574 174.175 17.748 175.05 16.7418C175.925 15.7355 177.069 15.2324 178.481 15.2324ZM181.172 19.6762C181.103 18.9449 180.944 18.3605 180.694 17.923C180.231 17.1105 179.459 16.7043 178.378 16.7043C177.603 16.7043 176.953 16.9855 176.428 17.548C175.903 18.1043 175.625 18.8137 175.594 19.6762H181.172ZM185.991 22.348C186.041 22.9105 186.181 23.3418 186.413 23.6418C186.838 24.1855 187.575 24.4574 188.625 24.4574C189.25 24.4574 189.8 24.323 190.275 24.0543C190.75 23.7793 190.988 23.3574 190.988 22.7887C190.988 22.3574 190.797 22.0293 190.416 21.8043C190.172 21.6668 189.691 21.5074 188.972 21.3262L187.631 20.9887C186.775 20.7762 186.144 20.5387 185.738 20.2762C185.013 19.8199 184.65 19.1887 184.65 18.3824C184.65 17.4324 184.991 16.6637 185.672 16.0762C186.359 15.4887 187.281 15.1949 188.438 15.1949C189.95 15.1949 191.041 15.6387 191.709 16.5262C192.128 17.0887 192.331 17.6949 192.319 18.3449H190.725C190.694 17.9637 190.559 17.6168 190.322 17.3043C189.934 16.8605 189.263 16.6387 188.306 16.6387C187.669 16.6387 187.184 16.7605 186.853 17.0043C186.528 17.248 186.366 17.5699 186.366 17.9699C186.366 18.4074 186.581 18.7574 187.013 19.0199C187.263 19.1762 187.631 19.3137 188.119 19.4324L189.234 19.7043C190.447 19.998 191.259 20.2824 191.672 20.5574C192.328 20.9887 192.656 21.6668 192.656 22.5918C192.656 23.4855 192.316 24.2574 191.634 24.9074C190.959 25.5574 189.928 25.8824 188.541 25.8824C187.047 25.8824 185.988 25.5449 185.363 24.8699C184.744 24.1887 184.413 23.348 184.369 22.348H185.991Z" fill="#7F7B74"/>
<rect x="241.217" y="56.1582" width="35.3193" height="35.3193" fill="#FFB629"/>
<path d="M308.021 67.0465V68.6871H303.38V80.8184H301.486V68.6871H296.846V67.0465H308.021ZM311.358 79.7309C312.477 79.7309 313.242 79.309 313.655 78.4652C314.074 77.6152 314.283 76.6715 314.283 75.634C314.283 74.6965 314.133 73.934 313.833 73.3465C313.358 72.4215 312.539 71.959 311.377 71.959C310.346 71.959 309.596 72.3527 309.127 73.1402C308.658 73.9277 308.424 74.8777 308.424 75.9902C308.424 77.059 308.658 77.9496 309.127 78.6621C309.596 79.3746 310.339 79.7309 311.358 79.7309ZM311.424 70.4871C312.717 70.4871 313.811 70.9184 314.705 71.7809C315.599 72.6434 316.046 73.9121 316.046 75.5871C316.046 77.2059 315.652 78.5434 314.864 79.5996C314.077 80.6559 312.855 81.184 311.199 81.184C309.817 81.184 308.721 80.7184 307.908 79.7871C307.096 78.8496 306.689 77.5934 306.689 76.0184C306.689 74.3309 307.117 72.9871 307.974 71.9871C308.83 70.9871 309.98 70.4871 311.424 70.4871ZM322.242 70.5527C322.955 70.5527 323.646 70.7215 324.314 71.059C324.983 71.3902 325.492 71.8215 325.842 72.3527C326.18 72.859 326.405 73.4496 326.517 74.1246C326.617 74.5871 326.667 75.3246 326.667 76.3371H319.308C319.339 77.3559 319.58 78.1746 320.03 78.7934C320.48 79.4059 321.177 79.7121 322.121 79.7121C323.002 79.7121 323.705 79.4215 324.23 78.8402C324.53 78.5027 324.742 78.1121 324.867 77.6684H326.527C326.483 78.0371 326.336 78.4496 326.086 78.9059C325.842 79.3559 325.567 79.7246 325.261 80.0121C324.749 80.5121 324.114 80.8496 323.358 81.0246C322.952 81.1246 322.492 81.1746 321.98 81.1746C320.73 81.1746 319.671 80.7215 318.802 79.8152C317.933 78.9027 317.499 77.6277 317.499 75.9902C317.499 74.3777 317.936 73.0684 318.811 72.0621C319.686 71.0559 320.83 70.5527 322.242 70.5527ZM324.933 74.9965C324.864 74.2652 324.705 73.6809 324.455 73.2434C323.992 72.4309 323.221 72.0246 322.139 72.0246C321.364 72.0246 320.714 72.3059 320.189 72.8684C319.664 73.4246 319.386 74.134 319.355 74.9965H324.933ZM334.43 67.9746H336.136V70.7777H337.739V72.1559H336.136V78.709C336.136 79.059 336.255 79.2934 336.492 79.4121C336.624 79.4809 336.842 79.5152 337.149 79.5152C337.23 79.5152 337.317 79.5152 337.411 79.5152C337.505 79.509 337.614 79.4996 337.739 79.4871V80.8184C337.546 80.8746 337.342 80.9152 337.13 80.9402C336.924 80.9652 336.699 80.9777 336.455 80.9777C335.667 80.9777 335.133 80.7777 334.852 80.3777C334.571 79.9715 334.43 79.4465 334.43 78.8027V72.1559H333.071V70.7777H334.43V67.9746ZM345.708 70.7777H347.574C347.336 71.4215 346.808 72.8902 345.989 75.184C345.377 76.909 344.864 78.3152 344.452 79.4027C343.477 81.9652 342.789 83.5277 342.389 84.0902C341.989 84.6527 341.302 84.934 340.327 84.934C340.089 84.934 339.905 84.9246 339.774 84.9059C339.649 84.8871 339.492 84.8527 339.305 84.8027V83.2652C339.599 83.3465 339.811 83.3965 339.942 83.4152C340.074 83.434 340.189 83.4434 340.289 83.4434C340.602 83.4434 340.83 83.3902 340.974 83.284C341.124 83.184 341.249 83.059 341.349 82.909C341.38 82.859 341.492 82.6027 341.686 82.1402C341.88 81.6777 342.021 81.334 342.108 81.109L338.396 70.7777H340.308L342.999 78.9527L345.708 70.7777ZM353.274 79.684C354.061 79.684 354.714 79.3559 355.233 78.6996C355.758 78.0371 356.021 77.0496 356.021 75.7371C356.021 74.9371 355.905 74.2496 355.674 73.6746C355.236 72.5684 354.436 72.0152 353.274 72.0152C352.105 72.0152 351.305 72.5996 350.874 73.7684C350.642 74.3934 350.527 75.1871 350.527 76.1496C350.527 76.9246 350.642 77.584 350.874 78.1277C351.311 79.1652 352.111 79.684 353.274 79.684ZM348.905 70.8246H350.546V72.1559C350.883 71.6996 351.252 71.3465 351.652 71.0965C352.221 70.7215 352.889 70.534 353.658 70.534C354.796 70.534 355.761 70.9715 356.555 71.8465C357.349 72.7152 357.746 73.959 357.746 75.5777C357.746 77.7652 357.174 79.3277 356.03 80.2652C355.305 80.859 354.461 81.1559 353.499 81.1559C352.742 81.1559 352.108 80.9902 351.596 80.659C351.296 80.4715 350.961 80.1496 350.592 79.6934V84.8215H348.905V70.8246ZM363.905 70.5527C364.617 70.5527 365.308 70.7215 365.977 71.059C366.646 71.3902 367.155 71.8215 367.505 72.3527C367.842 72.859 368.067 73.4496 368.18 74.1246C368.28 74.5871 368.33 75.3246 368.33 76.3371H360.971C361.002 77.3559 361.242 78.1746 361.692 78.7934C362.142 79.4059 362.839 79.7121 363.783 79.7121C364.664 79.7121 365.367 79.4215 365.892 78.8402C366.192 78.5027 366.405 78.1121 366.53 77.6684H368.189C368.146 78.0371 367.999 78.4496 367.749 78.9059C367.505 79.3559 367.23 79.7246 366.924 80.0121C366.411 80.5121 365.777 80.8496 365.021 81.0246C364.614 81.1246 364.155 81.1746 363.642 81.1746C362.392 81.1746 361.333 80.7215 360.464 79.8152C359.596 78.9027 359.161 77.6277 359.161 75.9902C359.161 74.3777 359.599 73.0684 360.474 72.0621C361.349 71.0559 362.492 70.5527 363.905 70.5527ZM366.596 74.9965C366.527 74.2652 366.367 73.6809 366.117 73.2434C365.655 72.4309 364.883 72.0246 363.802 72.0246C363.027 72.0246 362.377 72.3059 361.852 72.8684C361.327 73.4246 361.049 74.134 361.017 74.9965H366.596ZM371.414 77.6684C371.464 78.2309 371.605 78.6621 371.836 78.9621C372.261 79.5059 372.999 79.7777 374.049 79.7777C374.674 79.7777 375.224 79.6434 375.699 79.3746C376.174 79.0996 376.411 78.6777 376.411 78.109C376.411 77.6777 376.221 77.3496 375.839 77.1246C375.596 76.9871 375.114 76.8277 374.396 76.6465L373.055 76.309C372.199 76.0965 371.567 75.859 371.161 75.5965C370.436 75.1402 370.074 74.509 370.074 73.7027C370.074 72.7527 370.414 71.984 371.096 71.3965C371.783 70.809 372.705 70.5152 373.861 70.5152C375.374 70.5152 376.464 70.959 377.133 71.8465C377.552 72.409 377.755 73.0152 377.742 73.6652H376.149C376.117 73.284 375.983 72.9371 375.746 72.6246C375.358 72.1809 374.686 71.959 373.73 71.959C373.092 71.959 372.608 72.0809 372.277 72.3246C371.952 72.5684 371.789 72.8902 371.789 73.2902C371.789 73.7277 372.005 74.0777 372.436 74.3402C372.686 74.4965 373.055 74.634 373.542 74.7527L374.658 75.0246C375.871 75.3184 376.683 75.6027 377.096 75.8777C377.752 76.309 378.08 76.9871 378.08 77.9121C378.08 78.8059 377.739 79.5777 377.058 80.2277C376.383 80.8777 375.352 81.2027 373.964 81.2027C372.471 81.2027 371.411 80.8652 370.786 80.1902C370.167 79.509 369.836 78.6684 369.792 77.6684H371.414Z" fill="#7F7B74"/>
<rect x="466.159" y="56.1543" width="35.3193" height="35.3193" fill="#2B5C63"/>
<path d="M528.744 66.6676C530.488 66.6676 531.841 67.127 532.804 68.0457C533.766 68.9645 534.3 70.0082 534.407 71.177H532.588C532.382 70.2895 531.969 69.5863 531.35 69.0676C530.738 68.5488 529.875 68.2895 528.763 68.2895C527.407 68.2895 526.31 68.7676 525.472 69.7238C524.641 70.6738 524.225 72.1332 524.225 74.102C524.225 75.7145 524.6 77.0238 525.35 78.0301C526.107 79.0301 527.232 79.5301 528.725 79.5301C530.1 79.5301 531.147 79.002 531.866 77.9457C532.247 77.3895 532.532 76.6582 532.719 75.752H534.538C534.375 77.202 533.838 78.4176 532.925 79.3988C531.832 80.5801 530.357 81.1707 528.5 81.1707C526.9 81.1707 525.557 80.6863 524.469 79.7176C523.038 78.4363 522.322 76.4582 522.322 73.7832C522.322 71.752 522.86 70.0863 523.935 68.7863C525.097 67.3738 526.7 66.6676 528.744 66.6676ZM540.575 79.727C541.694 79.727 542.46 79.3051 542.872 78.4613C543.291 77.6113 543.5 76.6676 543.5 75.6301C543.5 74.6926 543.35 73.9301 543.05 73.3426C542.575 72.4176 541.757 71.9551 540.594 71.9551C539.563 71.9551 538.813 72.3488 538.344 73.1363C537.875 73.9238 537.641 74.8738 537.641 75.9863C537.641 77.0551 537.875 77.9457 538.344 78.6582C538.813 79.3707 539.557 79.727 540.575 79.727ZM540.641 70.4832C541.935 70.4832 543.029 70.9145 543.922 71.777C544.816 72.6395 545.263 73.9082 545.263 75.5832C545.263 77.202 544.869 78.5395 544.082 79.5957C543.294 80.652 542.072 81.1801 540.416 81.1801C539.035 81.1801 537.938 80.7145 537.125 79.7832C536.313 78.8457 535.907 77.5895 535.907 76.0145C535.907 74.327 536.335 72.9832 537.191 71.9832C538.047 70.9832 539.197 70.4832 540.641 70.4832ZM547.325 67.0426H549.013V80.8145H547.325V67.0426ZM555.538 79.727C556.657 79.727 557.422 79.3051 557.835 78.4613C558.254 77.6113 558.463 76.6676 558.463 75.6301C558.463 74.6926 558.313 73.9301 558.013 73.3426C557.538 72.4176 556.719 71.9551 555.557 71.9551C554.525 71.9551 553.775 72.3488 553.307 73.1363C552.838 73.9238 552.604 74.8738 552.604 75.9863C552.604 77.0551 552.838 77.9457 553.307 78.6582C553.775 79.3707 554.519 79.727 555.538 79.727ZM555.604 70.4832C556.897 70.4832 557.991 70.9145 558.885 71.777C559.779 72.6395 560.225 73.9082 560.225 75.5832C560.225 77.202 559.832 78.5395 559.044 79.5957C558.257 80.652 557.035 81.1801 555.379 81.1801C553.997 81.1801 552.9 80.7145 552.088 79.7832C551.275 78.8457 550.869 77.5895 550.869 76.0145C550.869 74.327 551.297 72.9832 552.154 71.9832C553.01 70.9832 554.16 70.4832 555.604 70.4832ZM562.288 70.7738H563.891V72.5082C564.022 72.1707 564.344 71.7613 564.857 71.2801C565.369 70.7926 565.96 70.5488 566.629 70.5488C566.66 70.5488 566.713 70.552 566.788 70.5582C566.863 70.5645 566.991 70.577 567.172 70.5957V72.377C567.072 72.3582 566.979 72.3457 566.891 72.3395C566.81 72.3332 566.719 72.3301 566.619 72.3301C565.769 72.3301 565.116 72.6051 564.66 73.1551C564.204 73.6988 563.975 74.327 563.975 75.0395V80.8145H562.288V70.7738ZM569.413 70.7738L571.344 78.6863L573.304 70.7738H575.197L577.166 78.6395L579.219 70.7738H580.907L577.991 80.8145H576.238L574.194 73.0426L572.216 80.8145H570.463L567.566 70.7738H569.413ZM586.494 79.727C587.613 79.727 588.379 79.3051 588.791 78.4613C589.21 77.6113 589.419 76.6676 589.419 75.6301C589.419 74.6926 589.269 73.9301 588.969 73.3426C588.494 72.4176 587.675 71.9551 586.513 71.9551C585.482 71.9551 584.732 72.3488 584.263 73.1363C583.794 73.9238 583.56 74.8738 583.56 75.9863C583.56 77.0551 583.794 77.9457 584.263 78.6582C584.732 79.3707 585.475 79.727 586.494 79.727ZM586.56 70.4832C587.854 70.4832 588.947 70.9145 589.841 71.777C590.735 72.6395 591.182 73.9082 591.182 75.5832C591.182 77.202 590.788 78.5395 590 79.5957C589.213 80.652 587.991 81.1801 586.335 81.1801C584.954 81.1801 583.857 80.7145 583.044 79.7832C582.232 78.8457 581.825 77.5895 581.825 76.0145C581.825 74.327 582.254 72.9832 583.11 71.9832C583.966 70.9832 585.116 70.4832 586.56 70.4832ZM593.244 70.7738H594.847V72.5082C594.979 72.1707 595.3 71.7613 595.813 71.2801C596.325 70.7926 596.916 70.5488 597.585 70.5488C597.616 70.5488 597.669 70.552 597.744 70.5582C597.819 70.5645 597.947 70.577 598.129 70.5957V72.377C598.029 72.3582 597.935 72.3457 597.847 72.3395C597.766 72.3332 597.675 72.3301 597.575 72.3301C596.725 72.3301 596.072 72.6051 595.616 73.1551C595.16 73.6988 594.932 74.327 594.932 75.0395V80.8145H593.244V70.7738ZM599.554 67.0426H601.175V75.0395L605.507 70.7738H607.663L603.819 74.5332L607.879 80.8145H605.722L602.591 75.752L601.175 77.0457V80.8145H599.554V67.0426Z" fill="#7F7B74"/>
</svg>
